<svg id="Layer_1" data-name="Layer 1" xmlns="http://www.w3.org/2000/svg" viewBox="0 0 1000 300"><defs><style>.cls-1{fill:#f9c100;}.cls-2{fill:#09a;}</style></defs><polygon class="cls-1" points="207.51 197.41 207.74 34.28 290.64 197.41 207.51 197.41"/><polygon class="cls-2" points="203.41 197.63 203.19 33.22 66.72 197.63 203.41 197.63"/><polygon class="cls-1" points="61 201.69 299.43 201.69 268.57 247.79 100.68 247.79 61 201.69"/><path class="cls-1" d="M770.7,129.23c17.66,0,31.49,14.08,31.49,36.61s-14,36.87-31.49,36.87c-10.5,0-18.05-4.74-22-11v10H726.79V107h21.89v33.41C752.65,134,760.46,129.23,770.7,129.23Zm-6.53,19.08c-8.19,0-15.62,6.27-15.62,17.66s7.43,17.67,15.62,17.67,15.74-6.4,15.74-17.8S772.49,148.31,764.17,148.31Z"/><path class="cls-1" d="M846.21,202.71c-21,0-36.86-14.08-36.86-36.74s16.26-36.74,37.12-36.74,37.12,14.08,37.12,36.74S867.21,202.71,846.21,202.71Zm0-19c7.81,0,15.11-5.76,15.11-17.79s-7.17-17.79-14.85-17.79c-7.94,0-14.85,5.63-14.85,17.79S838.28,183.76,846.21,183.76Z"/><path class="cls-1" d="M898.69,148.43H890V130.26h8.7V112.85h21.89v17.41h14.34v18.17H920.58v28.68c0,4.22,1.79,6,6.66,6h7.81v18.56H923.91c-14.85,0-25.22-6.27-25.22-24.83Z"/><path class="cls-2" d="M413.41,110.8c21.38,0,37.51,12,42.63,31.49H432c-3.71-7.68-10.49-11.52-18.81-11.52-13.45,0-22.66,10-22.66,25.86s9.21,25.85,22.66,25.85c8.32,0,15.1-3.84,18.81-11.52H456c-5.12,19.46-21.25,31.37-42.63,31.37-26.5,0-45.18-18.82-45.18-45.7S386.91,110.8,413.41,110.8Z"/><path class="cls-2" d="M469.47,107h21.89v94.72H469.47Z"/><path class="cls-2" d="M539,202.71c-21,0-36.1-14.08-36.1-36.74s14.85-36.74,36.1-36.74c20.86,0,35.58,13.83,35.58,35.59a54.44,54.44,0,0,1-.38,6.4H524.64c.77,9.34,6.53,13.7,13.57,13.7,6.14,0,9.6-3.08,11.39-6.92h23.3C569.44,192,556.77,202.71,539,202.71Zm-14.21-43.65h27.39c0-7.81-6.14-12.29-13.44-12.29S526.05,151.12,524.77,159.06Z"/><path class="cls-2" d="M613.22,129.23c10.62,0,18.17,4.87,22,11.14V130.26h21.89v71.42H635.23V191.57c-4,6.27-11.52,11.14-22.14,11.14-17.41,0-31.36-14.34-31.36-36.87S595.68,129.23,613.22,129.23Zm6.4,19.08c-8.2,0-15.62,6.14-15.62,17.53s7.42,17.8,15.62,17.8,15.61-6.28,15.61-17.67S627.94,148.31,619.62,148.31Z"/><path class="cls-2" d="M694.88,201.68H673V130.26h21.89v11.9c5-7.55,12.8-12.67,22.4-12.67v23.17h-6c-10.36,0-16.38,3.58-16.38,15.87Z"/></svg>